<mxfile host="app.diagrams.net" agent="Mozilla/5.0 (X11; Linux x86_64; rv:137.0) Gecko/20100101 Firefox/137.0" version="26.2.12">
  <diagram name="Page-1" id="spepu8bGk_FaaRLSNbL8">
    <mxGraphModel dx="2852" dy="1574" grid="1" gridSize="10" guides="1" tooltips="1" connect="1" arrows="1" fold="1" page="1" pageScale="1" pageWidth="738" pageHeight="315" math="0" shadow="0">
      <root>
        <mxCell id="0" />
        <mxCell id="1" parent="0" />
        <mxCell id="fkFkRCmbEsNyCXXQW4yH-1" value="Vertex Shader" style="rounded=0;whiteSpace=wrap;html=1;labelPosition=center;verticalLabelPosition=top;align=center;verticalAlign=bottom;fontFamily=CMU Serif;fontSource=https%3A%2F%2Ffonts.googleapis.com%2Fcss%3Ffamily%3DCMU%2BSerif;" parent="1" vertex="1">
          <mxGeometry x="250" y="85" width="240" height="160" as="geometry" />
        </mxCell>
        <mxCell id="fkFkRCmbEsNyCXXQW4yH-5" value="" style="ellipse;whiteSpace=wrap;html=1;aspect=fixed;" parent="1" vertex="1">
          <mxGeometry x="55" y="70" width="10" height="10" as="geometry" />
        </mxCell>
        <mxCell id="fkFkRCmbEsNyCXXQW4yH-6" value="" style="ellipse;whiteSpace=wrap;html=1;aspect=fixed;" parent="1" vertex="1">
          <mxGeometry x="85" y="110" width="10" height="10" as="geometry" />
        </mxCell>
        <mxCell id="fkFkRCmbEsNyCXXQW4yH-7" value="" style="ellipse;whiteSpace=wrap;html=1;aspect=fixed;" parent="1" vertex="1">
          <mxGeometry x="115" y="70" width="10" height="10" as="geometry" />
        </mxCell>
        <mxCell id="fkFkRCmbEsNyCXXQW4yH-8" value="P&lt;sub&gt;0&lt;/sub&gt;" style="text;html=1;align=center;verticalAlign=middle;resizable=0;points=[];autosize=1;strokeColor=none;fillColor=none;fontFamily=CMU Serif;fontSource=https%3A%2F%2Ffonts.googleapis.com%2Fcss%3Ffamily%3DCMU%2BSerif;" parent="1" vertex="1">
          <mxGeometry x="40" y="40" width="40" height="30" as="geometry" />
        </mxCell>
        <mxCell id="fkFkRCmbEsNyCXXQW4yH-9" value="P&lt;sub&gt;2&lt;/sub&gt;" style="text;html=1;align=center;verticalAlign=middle;resizable=0;points=[];autosize=1;strokeColor=none;fillColor=none;fontFamily=CMU Serif;fontSource=https%3A%2F%2Ffonts.googleapis.com%2Fcss%3Ffamily%3DCMU%2BSerif;" parent="1" vertex="1">
          <mxGeometry x="70" y="120" width="40" height="30" as="geometry" />
        </mxCell>
        <mxCell id="fkFkRCmbEsNyCXXQW4yH-10" value="P&lt;sub&gt;1&lt;/sub&gt;" style="text;html=1;align=center;verticalAlign=middle;resizable=0;points=[];autosize=1;strokeColor=none;fillColor=none;fontFamily=CMU Serif;fontSource=https%3A%2F%2Ffonts.googleapis.com%2Fcss%3Ffamily%3DCMU%2BSerif;" parent="1" vertex="1">
          <mxGeometry x="100" y="40" width="40" height="30" as="geometry" />
        </mxCell>
        <mxCell id="fkFkRCmbEsNyCXXQW4yH-11" value="" style="endArrow=classic;html=1;rounded=0;" parent="1" edge="1">
          <mxGeometry width="50" height="50" relative="1" as="geometry">
            <mxPoint x="150" y="165" as="sourcePoint" />
            <mxPoint x="250" y="165" as="targetPoint" />
          </mxGeometry>
        </mxCell>
        <mxCell id="fkFkRCmbEsNyCXXQW4yH-14" value="&lt;font data-font-src=&quot;https://fonts.googleapis.com/css?family=CMU+Mono&quot;&gt;inPosition : vec4&lt;/font&gt;" style="edgeLabel;html=1;align=center;verticalAlign=middle;resizable=0;points=[];horizontal=1;fontFamily=CMU Serif;fontSource=https%3A%2F%2Ffonts.googleapis.com%2Fcss%3Ffamily%3DCMU%2BSerif;" parent="fkFkRCmbEsNyCXXQW4yH-11" vertex="1" connectable="0">
          <mxGeometry x="0.1643" relative="1" as="geometry">
            <mxPoint x="-13" y="15" as="offset" />
          </mxGeometry>
        </mxCell>
        <mxCell id="fkFkRCmbEsNyCXXQW4yH-12" value="" style="endArrow=classic;html=1;rounded=0;" parent="1" edge="1">
          <mxGeometry width="50" height="50" relative="1" as="geometry">
            <mxPoint x="370" y="285" as="sourcePoint" />
            <mxPoint x="370" y="245" as="targetPoint" />
          </mxGeometry>
        </mxCell>
        <mxCell id="fkFkRCmbEsNyCXXQW4yH-13" value="&lt;div&gt;uniMatrix : mat4&lt;/div&gt;" style="edgeLabel;html=1;align=center;verticalAlign=middle;resizable=0;points=[];fontFamily=CMU Serif;fontSource=https%3A%2F%2Ffonts.googleapis.com%2Fcss%3Ffamily%3DCMU%2BSerif;" parent="fkFkRCmbEsNyCXXQW4yH-12" vertex="1" connectable="0">
          <mxGeometry x="-0.4429" relative="1" as="geometry">
            <mxPoint x="50" y="-7" as="offset" />
          </mxGeometry>
        </mxCell>
        <mxCell id="fkFkRCmbEsNyCXXQW4yH-15" value="Ã—" style="ellipse;whiteSpace=wrap;aspect=fixed;fontFamily=CMU Serif;fontSource=https%3A%2F%2Ffonts.googleapis.com%2Fcss%3Ffamily%3DCMU%2BSerif;" parent="1" vertex="1">
          <mxGeometry x="360" y="155" width="20" height="20" as="geometry" />
        </mxCell>
        <mxCell id="fkFkRCmbEsNyCXXQW4yH-16" value="" style="endArrow=classic;html=1;rounded=0;entryX=0;entryY=0.5;entryDx=0;entryDy=0;" parent="1" target="fkFkRCmbEsNyCXXQW4yH-15" edge="1">
          <mxGeometry width="50" height="50" relative="1" as="geometry">
            <mxPoint x="250" y="164.71" as="sourcePoint" />
            <mxPoint x="340" y="164.71" as="targetPoint" />
          </mxGeometry>
        </mxCell>
        <mxCell id="fkFkRCmbEsNyCXXQW4yH-18" value="" style="endArrow=classic;html=1;rounded=0;entryX=0.5;entryY=1;entryDx=0;entryDy=0;" parent="1" target="fkFkRCmbEsNyCXXQW4yH-15" edge="1">
          <mxGeometry width="50" height="50" relative="1" as="geometry">
            <mxPoint x="369.71" y="245" as="sourcePoint" />
            <mxPoint x="369.71" y="205" as="targetPoint" />
          </mxGeometry>
        </mxCell>
        <mxCell id="fkFkRCmbEsNyCXXQW4yH-20" value="" style="endArrow=classic;html=1;rounded=0;entryX=0;entryY=0.5;entryDx=0;entryDy=0;" parent="1" edge="1">
          <mxGeometry width="50" height="50" relative="1" as="geometry">
            <mxPoint x="380" y="164.71" as="sourcePoint" />
            <mxPoint x="490" y="165" as="targetPoint" />
          </mxGeometry>
        </mxCell>
        <mxCell id="fkFkRCmbEsNyCXXQW4yH-21" value="" style="endArrow=classic;html=1;rounded=0;" parent="1" edge="1">
          <mxGeometry width="50" height="50" relative="1" as="geometry">
            <mxPoint x="490" y="164.66" as="sourcePoint" />
            <mxPoint x="600" y="165" as="targetPoint" />
          </mxGeometry>
        </mxCell>
        <mxCell id="fkFkRCmbEsNyCXXQW4yH-22" value="&lt;font data-font-src=&quot;https://fonts.googleapis.com/css?family=CMU+Serif&quot;&gt;gl_Position : vec4&lt;/font&gt;" style="edgeLabel;html=1;align=center;verticalAlign=middle;resizable=0;points=[];fontFamily=CMU Serif;fontSource=https%3A%2F%2Ffonts.googleapis.com%2Fcss%3Ffamily%3DCMU%2BSerif;" parent="fkFkRCmbEsNyCXXQW4yH-21" vertex="1" connectable="0">
          <mxGeometry x="0.1643" relative="1" as="geometry">
            <mxPoint x="-12" y="15" as="offset" />
          </mxGeometry>
        </mxCell>
        <mxCell id="fkFkRCmbEsNyCXXQW4yH-23" value="&lt;font data-font-src=&quot;https://fonts.googleapis.com/css?family=CMU+Serif&quot; face=&quot;CMU Serif&quot;&gt;...&lt;/font&gt;" style="text;html=1;align=center;verticalAlign=middle;resizable=0;points=[];autosize=1;strokeColor=none;fillColor=none;" parent="1" vertex="1">
          <mxGeometry x="608" y="146" width="30" height="30" as="geometry" />
        </mxCell>
        <mxCell id="fkFkRCmbEsNyCXXQW4yH-24" value="" style="endArrow=classic;html=1;rounded=0;" parent="1" edge="1">
          <mxGeometry width="50" height="50" relative="1" as="geometry">
            <mxPoint x="650" y="164.66" as="sourcePoint" />
            <mxPoint x="690" y="165" as="targetPoint" />
          </mxGeometry>
        </mxCell>
        <mxCell id="fkFkRCmbEsNyCXXQW4yH-28" value="" style="ellipse;whiteSpace=wrap;html=1;aspect=fixed;" parent="1" vertex="1">
          <mxGeometry x="55" y="190" width="10" height="10" as="geometry" />
        </mxCell>
        <mxCell id="fkFkRCmbEsNyCXXQW4yH-29" value="" style="ellipse;whiteSpace=wrap;html=1;aspect=fixed;" parent="1" vertex="1">
          <mxGeometry x="85" y="230" width="10" height="10" as="geometry" />
        </mxCell>
        <mxCell id="fkFkRCmbEsNyCXXQW4yH-30" value="" style="ellipse;whiteSpace=wrap;html=1;aspect=fixed;" parent="1" vertex="1">
          <mxGeometry x="115" y="190" width="10" height="10" as="geometry" />
        </mxCell>
        <mxCell id="fkFkRCmbEsNyCXXQW4yH-31" value="P&lt;sub&gt;3&lt;/sub&gt;" style="text;html=1;align=center;verticalAlign=middle;resizable=0;points=[];autosize=1;strokeColor=none;fillColor=none;fontFamily=CMU Serif;fontSource=https%3A%2F%2Ffonts.googleapis.com%2Fcss%3Ffamily%3DCMU%2BSerif;" parent="1" vertex="1">
          <mxGeometry x="40" y="160" width="40" height="30" as="geometry" />
        </mxCell>
        <mxCell id="fkFkRCmbEsNyCXXQW4yH-32" value="P&lt;sub&gt;5&lt;/sub&gt;" style="text;html=1;align=center;verticalAlign=middle;resizable=0;points=[];autosize=1;strokeColor=none;fillColor=none;fontFamily=CMU Serif;fontSource=https%3A%2F%2Ffonts.googleapis.com%2Fcss%3Ffamily%3DCMU%2BSerif;" parent="1" vertex="1">
          <mxGeometry x="70" y="240" width="40" height="30" as="geometry" />
        </mxCell>
        <mxCell id="fkFkRCmbEsNyCXXQW4yH-33" value="P&lt;sub&gt;4&lt;/sub&gt;" style="text;html=1;align=center;verticalAlign=middle;resizable=0;points=[];autosize=1;strokeColor=none;fillColor=none;fontFamily=CMU Serif;fontSource=https%3A%2F%2Ffonts.googleapis.com%2Fcss%3Ffamily%3DCMU%2BSerif;" parent="1" vertex="1">
          <mxGeometry x="100" y="160" width="40" height="30" as="geometry" />
        </mxCell>
        <mxCell id="fkFkRCmbEsNyCXXQW4yH-34" value="" style="triangle;whiteSpace=wrap;html=1;fillColor=light-dark(#000000,#FFFFFF);" parent="1" vertex="1">
          <mxGeometry x="730" y="85" width="60" height="80" as="geometry" />
        </mxCell>
        <mxCell id="fkFkRCmbEsNyCXXQW4yH-35" value="" style="triangle;whiteSpace=wrap;html=1;fillColor=light-dark(#000000,#FFFFFF);" parent="1" vertex="1">
          <mxGeometry x="769" y="205" width="41" height="40" as="geometry" />
        </mxCell>
        <mxCell id="fkFkRCmbEsNyCXXQW4yH-36" value="" style="endArrow=classic;html=1;rounded=0;" parent="1" edge="1">
          <mxGeometry width="50" height="50" relative="1" as="geometry">
            <mxPoint x="850" y="164.31" as="sourcePoint" />
            <mxPoint x="890" y="164.65" as="targetPoint" />
          </mxGeometry>
        </mxCell>
        <mxCell id="fkFkRCmbEsNyCXXQW4yH-37" value="Fragment Shader" style="rounded=0;whiteSpace=wrap;html=1;labelPosition=center;verticalLabelPosition=top;align=center;verticalAlign=bottom;fontFamily=CMU Serif;fontSource=https%3A%2F%2Ffonts.googleapis.com%2Fcss%3Ffamily%3DCMU%2BSerif;" parent="1" vertex="1">
          <mxGeometry x="890" y="85" width="240" height="160" as="geometry" />
        </mxCell>
        <mxCell id="fkFkRCmbEsNyCXXQW4yH-38" style="edgeStyle=orthogonalEdgeStyle;rounded=0;orthogonalLoop=1;jettySize=auto;html=1;exitX=0.5;exitY=1;exitDx=0;exitDy=0;" parent="1" source="fkFkRCmbEsNyCXXQW4yH-37" target="fkFkRCmbEsNyCXXQW4yH-37" edge="1">
          <mxGeometry relative="1" as="geometry" />
        </mxCell>
        <mxCell id="fkFkRCmbEsNyCXXQW4yH-42" value="" style="endArrow=classic;html=1;rounded=0;" parent="1" edge="1">
          <mxGeometry width="50" height="50" relative="1" as="geometry">
            <mxPoint x="1130" y="165" as="sourcePoint" />
            <mxPoint x="1230" y="165" as="targetPoint" />
          </mxGeometry>
        </mxCell>
        <mxCell id="fkFkRCmbEsNyCXXQW4yH-45" value="&lt;font data-font-src=&quot;https://fonts.googleapis.com/css?family=CMU+Serif&quot; face=&quot;CMU Serif&quot;&gt;outColor : vec4&lt;/font&gt;" style="edgeLabel;html=1;align=center;verticalAlign=middle;resizable=0;points=[];" parent="fkFkRCmbEsNyCXXQW4yH-42" vertex="1" connectable="0">
          <mxGeometry relative="1" as="geometry">
            <mxPoint x="-6" y="10" as="offset" />
          </mxGeometry>
        </mxCell>
        <mxCell id="fkFkRCmbEsNyCXXQW4yH-46" value="" style="endArrow=classic;html=1;rounded=0;" parent="1" edge="1">
          <mxGeometry width="50" height="50" relative="1" as="geometry">
            <mxPoint x="1009.77" y="285" as="sourcePoint" />
            <mxPoint x="1009.77" y="245" as="targetPoint" />
          </mxGeometry>
        </mxCell>
        <mxCell id="fkFkRCmbEsNyCXXQW4yH-47" value="&lt;div&gt;uniColor : vec4&lt;/div&gt;" style="edgeLabel;html=1;align=center;verticalAlign=middle;resizable=0;points=[];fontFamily=CMU Serif;fontSource=https%3A%2F%2Ffonts.googleapis.com%2Fcss%3Ffamily%3DCMU%2BSerif;" parent="fkFkRCmbEsNyCXXQW4yH-46" vertex="1" connectable="0">
          <mxGeometry x="-0.4429" relative="1" as="geometry">
            <mxPoint x="40" y="-6" as="offset" />
          </mxGeometry>
        </mxCell>
        <mxCell id="fkFkRCmbEsNyCXXQW4yH-49" value="" style="endArrow=none;html=1;rounded=0;" parent="1" edge="1">
          <mxGeometry width="50" height="50" relative="1" as="geometry">
            <mxPoint x="1009.77" y="245" as="sourcePoint" />
            <mxPoint x="1009.77" y="165" as="targetPoint" />
          </mxGeometry>
        </mxCell>
        <mxCell id="fkFkRCmbEsNyCXXQW4yH-50" value="" style="endArrow=classic;html=1;rounded=0;" parent="1" edge="1">
          <mxGeometry width="50" height="50" relative="1" as="geometry">
            <mxPoint x="1010" y="165" as="sourcePoint" />
            <mxPoint x="1130" y="165" as="targetPoint" />
          </mxGeometry>
        </mxCell>
        <mxCell id="fkFkRCmbEsNyCXXQW4yH-51" value="" style="triangle;whiteSpace=wrap;html=1;fillColor=light-dark(#0000FF,#FF0000);gradientColor=none;" parent="1" vertex="1">
          <mxGeometry x="1270" y="85" width="60" height="80" as="geometry" />
        </mxCell>
        <mxCell id="fkFkRCmbEsNyCXXQW4yH-52" value="" style="triangle;whiteSpace=wrap;html=1;fillColor=light-dark(#00FF00,#FFFFFF);gradientColor=none;gradientDirection=east;" parent="1" vertex="1">
          <mxGeometry x="1309" y="205" width="41" height="40" as="geometry" />
        </mxCell>
        <mxCell id="fkFkRCmbEsNyCXXQW4yH-53" value="&lt;font data-font-src=&quot;https://fonts.googleapis.com/css?family=CMU+Serif&quot; face=&quot;CMU Serif&quot;&gt;...&lt;/font&gt;" style="text;html=1;align=center;verticalAlign=middle;resizable=0;points=[];autosize=1;strokeColor=none;fillColor=none;" parent="1" vertex="1">
          <mxGeometry x="1416" y="146" width="30" height="30" as="geometry" />
        </mxCell>
        <mxCell id="fkFkRCmbEsNyCXXQW4yH-54" value="" style="endArrow=classic;html=1;rounded=0;" parent="1" edge="1">
          <mxGeometry width="50" height="50" relative="1" as="geometry">
            <mxPoint x="1370" y="165" as="sourcePoint" />
            <mxPoint x="1410" y="165.34" as="targetPoint" />
          </mxGeometry>
        </mxCell>
      </root>
    </mxGraphModel>
  </diagram>
</mxfile>
